<svg width="1728" height="1755" viewBox="0 0 1728 1755" fill="none" xmlns="http://www.w3.org/2000/svg">
<path d="M-566.967 1701.74C187.712 1359.25 445.244 981.545 538.577 695.009C642.73 375.221 589.017 25.7078 701.45 4.00274C773.443 -9.90061 862.028 120.612 1027.18 406.71C1528.02 1274.27 1539.36 1504.66 1752.74 1564.45C2051.66 1648.28 2235.93 1253.92 2695.4 1262.42C3032.87 1268.68 3305.95 1488.25 3490 1683.43" stroke="#F1F3F5" stroke-width="5" stroke-miterlimit="10"/>
<path d="M-585.088 1667.32C148.341 1332.2 420.666 965.055 521.4 696.511C633.968 396.405 580.806 64.9459 692.069 49.2694C763.6 39.1835 850.521 167.464 1010.05 443.757C1494.88 1283.29 1509.92 1516.55 1721.66 1573.39C2022.31 1652.97 2198.55 1230.08 2662.89 1224.33C2673.01 1224.2 2682.98 1224.2 2692.96 1224.45C3022.42 1232.95 3299.39 1452.63 3487.38 1646.61" stroke="#F1F3F5" stroke-width="5" stroke-miterlimit="10"/>
<path d="M-603.152 1632.89C108.972 1305.17 395.875 949.222 504.27 698.033C625.083 418.047 572.675 104.226 682.734 94.5569C753.827 88.2988 839.094 214.357 992.956 480.836C1461.68 1292.3 1480.33 1529.18 1690.66 1582.33C1992.77 1658.68 2161.34 1206.04 2630.46 1186.23C2640.75 1185.79 2651.01 1185.35 2661.27 1185.4C2996.17 1187.11 3287.54 1411.33 3484.82 1609.78" stroke="#F1F3F5" stroke-width="5" stroke-miterlimit="10"/>
<path d="M-621.257 1598.46C69.6631 1278.05 370.695 934.151 487.11 699.556C615.832 440.149 564.559 143.537 673.359 139.855C744.047 137.456 827.559 261.241 975.831 517.906C1428.5 1301.4 1450.84 1541.39 1659.63 1591.27C1963.35 1663.82 2124.15 1181.82 2598 1148.12C2608.52 1147.37 2619.03 1146.65 2629.5 1146.34C2969.82 1136.27 3275.61 1370.02 3482.17 1572.93" stroke="#F1F3F5" stroke-width="5" stroke-miterlimit="10"/>
<path d="M-639.355 1564.03C30.3155 1251.03 345.015 919.882 469.946 701.079C606.058 462.699 556.495 182.89 664.001 185.153C734.295 186.624 816.075 308.135 958.722 554.985C1395.33 1310.45 1421.37 1553.57 1628.61 1600.2C1934.03 1668.91 2087.02 1157.43 2565.55 1109.98C2576.29 1108.94 2587.05 1107.9 2597.84 1107.25C2943.56 1088.04 3263.77 1328.68 3479.64 1536.1" stroke="#F1F3F5" stroke-width="5" stroke-miterlimit="10"/>
<path d="M-657.453 1529.6C-9.02102 1223.99 318.682 906.48 452.814 702.612C595.541 485.666 548.43 222.274 654.665 230.441C724.588 235.823 804.602 355.018 941.625 592.064C1362.19 1319.5 1391.94 1565.72 1597.61 1609.14C1904.7 1673.96 2049.92 1132.87 2533.12 1071.91C2544.1 1070.52 2555.08 1069.12 2566.15 1068.22C2917.26 1039.95 3251.96 1287.4 3477.07 1499.31" stroke="#F1F3F5" stroke-width="5" stroke-miterlimit="10"/>
<path d="M-675.54 1495.17C-48.3683 1196.93 291.495 893.932 435.639 704.135C583.933 508.862 540.434 261.71 645.285 275.739C714.859 285.042 793.096 401.943 924.483 629.132C1328.99 1328.54 1362.49 1577.82 1566.56 1618.06C1875.4 1678.97 2012.79 1108.16 2500.65 1033.81C2511.9 1032.1 2523.08 1030.35 2534.39 1029.17C2890.87 991.913 3240.05 1246.12 3474.44 1462.48" stroke="#F1F3F5" stroke-width="5" stroke-miterlimit="10"/>
<path d="M-693.639 1460.74C-87.7159 1169.87 229.897 851.617 418.485 705.658C532.707 508.456 532.425 301.199 635.927 321.026C705.153 334.294 781.611 448.795 907.374 666.263C1295.82 1337.65 1333.07 1589.94 1535.54 1627.05C1846.11 1683.97 1975.67 1083.35 2468.18 995.761C2479.64 993.728 2491.1 991.641 2502.7 990.16C2864.56 944.007 3228.25 1204.83 3471.89 1425.7" stroke="#F1F3F5" stroke-width="5" stroke-miterlimit="10"/>
<path d="M-711.74 1426.31C-127.055 1142.82 199.141 833.041 401.329 707.181C516.99 527.491 524.414 340.739 626.566 366.324C695.454 383.576 770.113 495.658 890.252 703.29C1262.59 1346.65 1303.66 1601.93 1504.52 1635.94C1816.84 1688.82 1938.54 1058.31 2435.73 957.608C2447.41 955.24 2459.1 952.821 2470.98 951.047C2838.24 896.07 3216.34 1163.48 3469.3 1388.82" stroke="#F1F3F5" stroke-width="5" stroke-miterlimit="10"/>
<path d="M-729.839 1391.88C-166.403 1115.76 168.376 814.486 384.164 708.703C501.265 546.515 516.406 380.321 617.208 411.612C685.748 432.879 758.629 542.551 873.132 740.359C1229.48 1355.74 1274.27 1613.91 1473.5 1644.86C1787.59 1693.66 1901.37 1033.19 2403.28 919.486C2415.18 916.795 2427.12 914.052 2439.27 911.976C2811.92 848.227 3204.47 1122.15 3466.72 1351.98" stroke="#F1F3F5" stroke-width="5" stroke-miterlimit="10"/>
<path d="M-747.928 1357.45C-205.731 1088.7 137.62 795.92 367.008 710.237C485.549 565.561 508.384 419.967 607.836 456.91C676.027 482.234 747.142 589.456 856.021 777.407C1196.3 1364.73 1244.88 1625.85 1442.47 1653.78C1758.34 1698.43 1864.18 1007.95 2370.82 881.364C2382.96 878.329 2395.14 875.283 2407.55 872.895C2785.61 800.436 3192.6 1080.83 3464.13 1315.13" stroke="#F1F3F5" stroke-width="5" stroke-miterlimit="10"/>
<path d="M-766.03 1323.01C-245.104 1061.66 106.886 777.354 349.863 711.801C469.844 584.637 500.351 459.674 598.464 502.25C666.283 531.663 735.644 636.381 838.887 814.559C1163.11 1373.85 1215.49 1637.83 1411.46 1662.78C1729.13 1703.24 1826.96 982.734 2338.37 843.335C2350.74 839.967 2363.11 836.598 2375.84 833.948C2759.32 752.823 3180.73 1039.62 3461.54 1278.41" stroke="#F1F3F5" stroke-width="5" stroke-miterlimit="10"/>
<path d="M-784.128 1288.58C-284.44 1034.6 76.0876 758.789 332.698 713.282C454.119 603.63 492.264 499.35 589.117 547.496C656.543 581.018 724.16 683.233 821.778 851.596C1130 1382.86 1186.13 1649.67 1380.42 1671.67C1699.89 1707.86 1789.67 957.264 2305.92 805.193C2318.5 801.479 2331.17 797.808 2344.16 794.815C2733.09 705.116 3168.9 998.202 3458.99 1241.52" stroke="#F1F3F5" stroke-width="5" stroke-miterlimit="10"/>
<path d="M-802.192 1254.15C-323.787 1007.55 45.3235 740.234 315.545 714.826C438.394 622.686 484.155 539.089 579.759 592.794C646.781 630.446 712.677 730.117 804.67 888.665C1096.79 1391.92 1156.76 1661.54 1349.4 1680.61C1670.69 1712.47 1752.35 931.731 2273.45 767.091C2286.28 763.034 2299.19 759.05 2312.42 755.754C2706.81 657.46 3157 956.93 3456.43 1204.69" stroke="#F1F3F5" stroke-width="5" stroke-miterlimit="10"/>
<path d="M-820.314 1219.72C-363.135 980.492 14.5696 721.668 298.391 716.338C422.68 641.711 476.023 578.838 570.401 638.113C636.983 679.906 701.192 777.021 787.505 925.765C1063.58 1400.99 1127.35 1673.33 1318.33 1689.56C1641.43 1717.03 1714.93 906.261 2240.96 729.001C2254 724.61 2267.17 720.323 2280.65 716.714C2680.54 609.889 3145.09 915.648 3453.75 1167.88" stroke="#F1F3F5" stroke-width="5" stroke-miterlimit="10"/>
<path d="M-838.412 1185.29C-402.483 953.436 -16.195 703.102 281.226 717.861C406.967 660.746 467.846 618.608 561.043 683.379C627.164 729.334 689.697 823.894 770.442 962.823C1030.45 1410.01 1098.02 1685.08 1287.36 1698.48C1612.28 1721.48 1677.57 880.592 2208.55 690.931C2221.82 686.195 2235.23 681.606 2249.04 677.695C2654.38 562.317 3133.27 874.313 3451.2 1130.99" stroke="#F1F3F5" stroke-width="5" stroke-miterlimit="10"/>
<path d="M-856.514 1150.86C-441.822 926.391 -46.9629 684.579 264.07 719.384C391.182 679.75 459.632 658.399 551.682 728.677C617.308 778.794 678.21 870.777 753.319 999.86C997.274 1419.03 1068.65 1696.77 1256.34 1707.37C1583.06 1725.83 1640.09 854.871 2176.09 652.736C2189.59 647.646 2203.25 642.764 2217.28 638.54C2628.19 514.797 3121.43 833.01 3448.62 1094.2" stroke="#F1F3F5" stroke-width="5" stroke-miterlimit="10"/>
<path d="M-874.612 1116.39C-481.17 899.293 -77.7274 665.94 246.905 720.876C375.514 698.774 451.388 698.138 542.302 773.923C607.433 828.16 666.715 917.619 736.188 1036.93C964.091 1428.06 1039.27 1708.46 1225.3 1716.31C1553.85 1730.2 1602.58 829.182 2143.64 614.697C2157.35 609.252 2171.27 604.079 2185.55 599.542C2602.03 467.319 3109.53 791.717 3446.03 1057.42" stroke="#F1F3F5" stroke-width="5" stroke-miterlimit="10"/>
<path d="M-892.702 1081.97C-520.52 872.321 -112.758 778.376 229.76 722.44C357.93 701.506 443.13 737.97 532.952 819.263C597.555 877.671 655.239 964.554 719.088 1074.05C930.928 1437.17 1009.89 1720.16 1194.29 1725.29C1524.62 1734.45 1565.02 803.398 2111.19 576.564C2125.11 570.786 2139.31 565.31 2153.84 560.46C2575.89 419.831 3097.63 750.392 3443.45 1020.54" stroke="#F1F3F5" stroke-width="5" stroke-miterlimit="10"/>
<path d="M-910.8 1047.55C-559.834 845.203 -146.999 658.211 212.606 723.942C342.329 747.66 434.829 777.73 523.594 864.54C587.645 927.121 643.744 1011.42 701.968 1111.11C897.767 1446.21 980.502 1731.76 1163.26 1734.19C1495.38 1738.62 1527.4 777.563 2078.72 538.442C2092.89 532.309 2107.33 526.573 2122.13 521.389C2550.09 373.167 3085.79 709.079 3440.9 983.715" stroke="#F1F3F5" stroke-width="5" stroke-miterlimit="10"/>
<path d="M-928.902 1013.13C-599.207 818.157 -174.988 624.877 195.45 725.475C326.849 761.167 426.503 817.521 514.233 909.838C577.711 976.591 632.257 1058.32 684.845 1148.19C864.592 1455.27 951.107 1744.09 1132.24 1743.14C1466.12 1741.39 1489.35 750.987 2046.27 500.351C2060.63 493.843 2075.34 487.839 2090.41 482.339C2523.85 325.355 3073.92 667.765 3438.28 946.875" stroke="#F1F3F5" stroke-width="5" stroke-miterlimit="10"/>
<path d="M-947 978.708C-638.555 791.122 -200.781 591.751 178.285 727.019C749.73 930.969 799.169 1756.88 1101.23 1752.08C1445.55 1746.62 1452.6 672.156 2058.7 443.288C2497.61 277.554 3062.1 626.462 3435.69 910.067" stroke="#F1F3F5" stroke-width="5" stroke-miterlimit="10"/>
</svg>
