<svg width="125" height="39" viewBox="0 0 125 39" fill="none" xmlns="http://www.w3.org/2000/svg">
<path d="M121.427 19.3043C84.4841 16.3516 88.5535 0 79.7728 0H37.773H29.773C22.7728 0 22.7728 8.35714 29.773 8.35714H37.773C45.273 8.35714 44.8791 15.7857 37.7728 15.7857H21.7728C15.7727 15.7857 15.7724 24.1429 21.7726 24.1429H37.7726C42.7728 24.1429 42.564 30.6429 37.7728 30.6429C31.1516 30.6429 31.2728 38.5357 37.773 38.5357H79.7728C79.7728 24.6071 104.273 24.6071 104.273 38.5357H124.273V22.3309C124.273 20.7416 123.012 19.4309 121.427 19.3043Z" fill="black"/>
<path d="M10.1822 0H13.7734C21.9052 0 21.397 8.35714 13.7734 8.35714H10.1822C2.55919 8.35714 2.05099 0 10.1822 0Z" fill="black"/>
<path d="M5.18218 15.7857H6.68293C12.2726 15.7857 12.2726 24.1428 6.68293 24.1428H5.18218C-1.72738 24.1428 -1.72741 15.7857 5.18218 15.7857Z" fill="black"/>
<path d="M8.18213 30.6429H22.6838C30.8156 30.6429 30.3074 39 22.6838 39H8.18213C0.559136 39 0.0509405 30.6429 8.18213 30.6429Z" fill="black"/>
</svg>
