<svg width="272" height="551" viewBox="0 0 272 551" fill="none" xmlns="http://www.w3.org/2000/svg">
<path d="M265.002 164.462H271.386C271.726 164.462 272 164.736 272 165.075V228.526C272 228.866 271.726 229.139 271.386 229.139H265.002C264.661 229.139 264.388 228.866 264.388 228.526V165.075C264.388 164.736 264.662 164.462 265.002 164.462Z" fill="#3F4B5B"/>
<path d="M0.613884 151.303H6.99835C7.33845 151.303 7.61224 151.577 7.61224 151.916V191.102C7.61224 191.441 7.33834 191.715 6.99835 191.715H0.613884C0.273781 191.715 0 191.441 0 191.102V151.916C0 151.577 0.273895 151.303 0.613884 151.303Z" fill="#3F4B5B"/>
<path d="M0.613884 204.024H6.99835C7.33845 204.024 7.61224 204.297 7.61224 204.637V243.822C7.61224 244.162 7.33834 244.435 6.99835 244.435H0.613884C0.273781 244.435 0 244.162 0 243.822V204.637C0 204.297 0.273895 204.024 0.613884 204.024Z" fill="#3F4B5B"/>
<path d="M6.99837 111.279H0.613892C0.274849 111.279 0 111.554 0 111.892V131.665C0 132.004 0.274849 132.278 0.613892 132.278H6.99837C7.33741 132.278 7.61226 132.004 7.61226 131.665V111.892C7.61226 111.554 7.33741 111.279 6.99837 111.279Z" fill="#3F4B5B"/>
<path d="M265.002 165.259H271.386C271.726 165.259 272 165.532 272 165.872V227.975C272 228.314 271.726 228.588 271.386 228.588H265.002C264.661 228.588 264.388 228.314 264.388 227.975V165.872C264.388 165.532 264.662 165.259 265.002 165.259Z" fill="url(#paint0_linear_4_191)"/>
<path d="M0.681755 152.1H7.06622C7.40632 152.1 7.68011 152.373 7.68011 152.713V190.55C7.68011 190.89 7.40621 191.163 7.06622 191.163H0.681755C0.341652 191.163 0.0678711 190.89 0.0678711 190.55V152.713C0.0678711 152.373 0.341766 152.1 0.681755 152.1Z" fill="url(#paint1_linear_4_191)"/>
<path d="M0.613884 204.82H6.99835C7.33845 204.82 7.61224 205.094 7.61224 205.433V243.271C7.61224 243.61 7.33834 243.883 6.99835 243.883H0.613884C0.273781 243.883 0 243.61 0 243.271V205.433C0 205.094 0.273895 204.82 0.613884 204.82Z" fill="url(#paint2_linear_4_191)"/>
<path d="M6.99837 112.076H0.613892C0.274849 112.076 0 112.35 0 112.689V131.114C0 131.452 0.274849 131.727 0.613892 131.727H6.99837C7.33741 131.727 7.61226 131.452 7.61226 131.114V112.689C7.61226 112.35 7.33741 112.076 6.99837 112.076Z" fill="url(#paint3_linear_4_191)"/>
<path d="M228.159 1.3759H43.909C20.7358 1.3759 1.95029 20.1281 1.95029 43.2601V507.74C1.95029 530.872 20.7358 549.624 43.909 549.624H228.159C251.332 549.624 270.117 530.872 270.117 507.74V43.2601C270.117 20.1281 251.332 1.3759 228.159 1.3759Z" fill="#C8E1F8" stroke="#3F4B5B" stroke-width="0.999999" stroke-linecap="round" stroke-linejoin="round"/>
<g filter="url(#filter0_f_4_191)">
<path d="M43.9067 2.84512C21.4508 2.84512 3.42001 20.8439 3.42001 43.26V507.742C3.42001 530.158 21.4508 548.155 43.9067 548.155H228.161C250.617 548.155 268.648 530.158 268.648 507.742V43.26C268.648 20.8439 250.617 2.84512 228.161 2.84512H43.9067Z" fill="#A0B8CE"/>
</g>
<path d="M212.379 1V10.0036H216.127V1H212.379ZM1.57306 55.6965V59.4375H270.495V55.6965H1.57306ZM1.57306 492.517V496.258H270.495V492.517H1.57306ZM55.9412 542.248V550H59.6889V542.248H55.9412Z" fill="#819ABB"/>
<path d="M160.602 4.64172H112.906V8.43419H160.602V4.64172Z" fill="black"/>
<path d="M44.6151 5.58267C22.7018 5.58267 5.0607 23.1924 5.0607 45.0669V507.439C5.0607 529.313 22.7018 546.923 44.6151 546.923H227.453C249.366 546.923 267.007 529.313 267.007 507.439V45.0669C267.007 23.1924 249.366 5.58267 227.453 5.58267H160.583C160.167 5.58286 159.765 5.73166 159.449 6.00215C159.134 6.27263 158.926 6.64692 158.863 7.0573V7.13375H158.852H114.656C114.609 6.70774 114.407 6.31377 114.088 6.02749C113.768 5.74121 113.354 5.5828 112.925 5.58267H44.6151Z" fill="black" stroke="#434343" stroke-width="0.500001"/>
<path d="M157.121 4.82982H116.387C115.425 4.82982 114.646 5.6079 114.646 6.56772V8.42976C114.646 9.38957 115.425 10.1677 116.387 10.1677H157.121C158.083 10.1677 158.862 9.38957 158.862 8.42976V6.56772C158.862 5.6079 158.083 4.82982 157.121 4.82982Z" fill="black" stroke="#1A1A1A" stroke-width="0.500001" stroke-linecap="round" stroke-linejoin="round"/>
<path d="M117.424 5.92255C116.549 5.92255 115.845 6.62533 115.845 7.49869C115.845 8.37205 116.549 9.07484 117.424 9.07484H156.085C156.96 9.07484 157.664 8.37205 157.664 7.49869C157.664 6.62533 156.96 5.92255 156.085 5.92255H117.424Z" stroke="#292929" stroke-width="0.153809" stroke-linecap="round"/>
<g filter="url(#filter1_f_4_191)">
<path d="M157.664 7.49856C157.664 7.77611 157.503 8.00111 157.304 8.0011C157.106 8.00111 156.945 7.77611 156.945 7.49856C156.945 7.22101 157.106 6.99602 157.304 6.99602C157.503 6.99602 157.664 7.22101 157.664 7.49856Z" fill="white"/>
<path d="M115.845 7.49856C115.845 7.77611 116.005 8.0011 116.204 8.0011C116.402 8.0011 116.563 7.77611 116.563 7.49856C116.563 7.22101 116.402 6.99602 116.204 6.99602C116.005 6.99602 115.845 7.22101 115.845 7.49856Z" fill="white"/>
</g>
<rect x="16" y="18" width="240" height="515" rx="31" fill="#FFC30B"/>
<path d="M105.918 276.656H102.185C102.116 276.173 101.977 275.744 101.767 275.369C101.557 274.989 101.287 274.665 100.957 274.398C100.628 274.131 100.247 273.926 99.8153 273.784C99.3892 273.642 98.9261 273.571 98.4261 273.571C97.5227 273.571 96.7358 273.795 96.0653 274.244C95.3949 274.687 94.875 275.335 94.5057 276.188C94.1364 277.034 93.9517 278.062 93.9517 279.273C93.9517 280.517 94.1364 281.562 94.5057 282.409C94.8807 283.256 95.4034 283.895 96.0739 284.327C96.7443 284.759 97.5199 284.974 98.4006 284.974C98.8949 284.974 99.3523 284.909 99.7727 284.778C100.199 284.648 100.577 284.457 100.906 284.207C101.236 283.952 101.509 283.642 101.724 283.278C101.946 282.915 102.099 282.5 102.185 282.034L105.918 282.051C105.821 282.852 105.58 283.625 105.193 284.369C104.813 285.108 104.298 285.77 103.651 286.355C103.009 286.935 102.241 287.395 101.349 287.736C100.463 288.071 99.4602 288.239 98.3409 288.239C96.7841 288.239 95.392 287.886 94.1648 287.182C92.9432 286.477 91.9773 285.457 91.267 284.122C90.5625 282.787 90.2102 281.17 90.2102 279.273C90.2102 277.369 90.5682 275.75 91.2841 274.415C92 273.08 92.9716 272.062 94.1989 271.364C95.4261 270.659 96.8068 270.307 98.3409 270.307C99.3523 270.307 100.29 270.449 101.153 270.733C102.023 271.017 102.793 271.432 103.463 271.977C104.134 272.517 104.679 273.179 105.099 273.963C105.526 274.747 105.798 275.645 105.918 276.656ZM112.229 288.247C111.393 288.247 110.649 288.102 109.996 287.812C109.342 287.517 108.825 287.082 108.445 286.509C108.07 285.929 107.882 285.207 107.882 284.344C107.882 283.616 108.016 283.006 108.283 282.511C108.55 282.017 108.913 281.619 109.374 281.318C109.834 281.017 110.357 280.79 110.942 280.636C111.533 280.483 112.152 280.375 112.8 280.312C113.561 280.233 114.175 280.159 114.641 280.091C115.107 280.017 115.445 279.909 115.655 279.767C115.865 279.625 115.97 279.415 115.97 279.136V279.085C115.97 278.545 115.8 278.128 115.459 277.832C115.124 277.537 114.646 277.389 114.027 277.389C113.374 277.389 112.854 277.534 112.467 277.824C112.081 278.108 111.825 278.466 111.7 278.898L108.342 278.625C108.513 277.83 108.848 277.142 109.348 276.562C109.848 275.977 110.493 275.528 111.283 275.216C112.078 274.898 112.999 274.739 114.044 274.739C114.771 274.739 115.467 274.824 116.132 274.994C116.803 275.165 117.396 275.429 117.913 275.787C118.436 276.145 118.848 276.605 119.149 277.168C119.45 277.724 119.601 278.392 119.601 279.17V288H116.158V286.185H116.055C115.845 286.594 115.564 286.955 115.212 287.267C114.859 287.574 114.436 287.815 113.942 287.991C113.447 288.162 112.876 288.247 112.229 288.247ZM113.268 285.741C113.803 285.741 114.274 285.636 114.683 285.426C115.092 285.21 115.413 284.92 115.646 284.557C115.879 284.193 115.996 283.781 115.996 283.321V281.932C115.882 282.006 115.726 282.074 115.527 282.136C115.334 282.193 115.115 282.247 114.871 282.298C114.626 282.344 114.382 282.386 114.138 282.426C113.893 282.46 113.672 282.491 113.473 282.52C113.047 282.582 112.675 282.682 112.357 282.818C112.038 282.955 111.791 283.139 111.615 283.372C111.439 283.599 111.351 283.884 111.351 284.224C111.351 284.719 111.53 285.097 111.888 285.358C112.251 285.614 112.712 285.741 113.268 285.741ZM122.418 288V274.909H125.938V277.193H126.074C126.313 276.381 126.713 275.767 127.276 275.352C127.838 274.932 128.486 274.722 129.219 274.722C129.401 274.722 129.597 274.733 129.807 274.756C130.017 274.778 130.202 274.81 130.361 274.849V278.071C130.19 278.02 129.955 277.974 129.653 277.935C129.352 277.895 129.077 277.875 128.827 277.875C128.293 277.875 127.815 277.991 127.395 278.224C126.98 278.452 126.651 278.77 126.406 279.179C126.168 279.588 126.048 280.06 126.048 280.594V288H122.418ZM132.306 270.545H136.857L141.664 282.273H141.869L146.675 270.545H151.227V288H147.647V276.639H147.502L142.985 287.915H140.548L136.031 276.597H135.886V288H132.306V270.545ZM160.165 288.256C158.818 288.256 157.659 287.983 156.688 287.438C155.722 286.886 154.977 286.108 154.455 285.102C153.932 284.091 153.67 282.895 153.67 281.514C153.67 280.168 153.932 278.986 154.455 277.969C154.977 276.952 155.713 276.159 156.662 275.591C157.616 275.023 158.736 274.739 160.02 274.739C160.884 274.739 161.688 274.878 162.432 275.156C163.182 275.429 163.835 275.841 164.392 276.392C164.955 276.943 165.392 277.636 165.705 278.472C166.017 279.301 166.173 280.273 166.173 281.386V282.384H155.119V280.134H162.756C162.756 279.611 162.642 279.148 162.415 278.744C162.188 278.341 161.872 278.026 161.469 277.798C161.071 277.565 160.608 277.449 160.08 277.449C159.528 277.449 159.04 277.577 158.614 277.832C158.193 278.082 157.864 278.42 157.625 278.847C157.386 279.267 157.264 279.736 157.259 280.253V282.392C157.259 283.04 157.378 283.599 157.616 284.071C157.861 284.543 158.205 284.906 158.648 285.162C159.091 285.418 159.616 285.545 160.224 285.545C160.628 285.545 160.997 285.489 161.332 285.375C161.668 285.261 161.955 285.091 162.193 284.864C162.432 284.636 162.614 284.358 162.739 284.028L166.097 284.25C165.926 285.057 165.577 285.761 165.048 286.364C164.526 286.96 163.849 287.426 163.02 287.761C162.196 288.091 161.244 288.256 160.165 288.256ZM173.366 288.213C172.372 288.213 171.472 287.957 170.665 287.446C169.864 286.929 169.227 286.17 168.756 285.17C168.29 284.165 168.057 282.932 168.057 281.472C168.057 279.972 168.298 278.724 168.781 277.73C169.264 276.73 169.906 275.983 170.707 275.489C171.514 274.989 172.398 274.739 173.358 274.739C174.091 274.739 174.702 274.864 175.19 275.114C175.685 275.358 176.082 275.665 176.384 276.034C176.69 276.398 176.923 276.756 177.082 277.108H177.193V270.545H180.815V288H177.236V285.903H177.082C176.912 286.267 176.67 286.628 176.358 286.986C176.051 287.338 175.651 287.631 175.156 287.864C174.668 288.097 174.071 288.213 173.366 288.213ZM174.517 285.324C175.102 285.324 175.597 285.165 176 284.847C176.409 284.523 176.722 284.071 176.938 283.491C177.159 282.912 177.27 282.233 177.27 281.455C177.27 280.676 177.162 280 176.946 279.426C176.73 278.852 176.418 278.409 176.009 278.097C175.599 277.784 175.102 277.628 174.517 277.628C173.92 277.628 173.418 277.79 173.009 278.114C172.599 278.437 172.29 278.886 172.08 279.46C171.869 280.034 171.764 280.699 171.764 281.455C171.764 282.216 171.869 282.889 172.08 283.474C172.295 284.054 172.605 284.509 173.009 284.838C173.418 285.162 173.92 285.324 174.517 285.324Z" fill="white"/>
<path d="M95.6399 445H93.3331L96.848 434.818H99.6222L103.132 445H100.825L98.2749 437.145H98.1953L95.6399 445ZM95.4957 440.998H100.945V442.678H95.4957V440.998ZM110.48 437.364L107.81 445H105.424L102.754 437.364H104.991L106.577 442.827H106.657L108.238 437.364H110.48ZM113.536 445.144C113.049 445.144 112.615 445.06 112.234 444.891C111.853 444.718 111.551 444.465 111.329 444.13C111.11 443.792 111.001 443.371 111.001 442.867C111.001 442.443 111.079 442.087 111.235 441.798C111.39 441.51 111.602 441.278 111.871 441.102C112.139 440.927 112.444 440.794 112.786 440.705C113.13 440.615 113.492 440.552 113.869 440.516C114.314 440.469 114.672 440.426 114.943 440.386C115.215 440.343 115.412 440.28 115.535 440.197C115.658 440.115 115.719 439.992 115.719 439.83V439.8C115.719 439.485 115.619 439.241 115.421 439.069C115.225 438.897 114.947 438.81 114.585 438.81C114.204 438.81 113.901 438.895 113.676 439.064C113.45 439.23 113.301 439.438 113.228 439.69L111.269 439.531C111.369 439.067 111.564 438.666 111.856 438.328C112.148 437.987 112.524 437.725 112.985 437.543C113.449 437.357 113.985 437.264 114.595 437.264C115.02 437.264 115.426 437.314 115.813 437.413C116.204 437.513 116.551 437.667 116.852 437.876C117.157 438.085 117.398 438.353 117.573 438.681C117.749 439.006 117.837 439.395 117.837 439.849V445H115.828V443.941H115.769C115.646 444.18 115.482 444.39 115.276 444.572C115.071 444.751 114.824 444.892 114.536 444.995C114.247 445.094 113.914 445.144 113.536 445.144ZM114.143 443.683C114.454 443.683 114.73 443.621 114.968 443.499C115.207 443.373 115.394 443.204 115.53 442.991C115.666 442.779 115.734 442.539 115.734 442.271V441.46C115.668 441.503 115.576 441.543 115.46 441.58C115.348 441.613 115.22 441.644 115.078 441.674C114.935 441.701 114.793 441.725 114.65 441.749C114.508 441.768 114.378 441.787 114.262 441.803C114.014 441.84 113.797 441.898 113.611 441.977C113.425 442.057 113.281 442.165 113.178 442.3C113.076 442.433 113.024 442.599 113.024 442.798C113.024 443.086 113.129 443.306 113.338 443.459C113.55 443.608 113.818 443.683 114.143 443.683ZM119.48 445V437.364H121.598V445H119.48ZM120.544 436.379C120.229 436.379 119.959 436.275 119.733 436.066C119.511 435.854 119.4 435.6 119.4 435.305C119.4 435.014 119.511 434.763 119.733 434.555C119.959 434.343 120.229 434.237 120.544 434.237C120.859 434.237 121.127 434.343 121.349 434.555C121.575 434.763 121.687 435.014 121.687 435.305C121.687 435.6 121.575 435.854 121.349 436.066C121.127 436.275 120.859 436.379 120.544 436.379ZM125.412 434.818V445H123.294V434.818H125.412ZM129.286 445.144C128.799 445.144 128.365 445.06 127.984 444.891C127.603 444.718 127.301 444.465 127.079 444.13C126.86 443.792 126.751 443.371 126.751 442.867C126.751 442.443 126.829 442.087 126.985 441.798C127.14 441.51 127.352 441.278 127.621 441.102C127.889 440.927 128.194 440.794 128.536 440.705C128.88 440.615 129.242 440.552 129.619 440.516C130.064 440.469 130.422 440.426 130.693 440.386C130.965 440.343 131.162 440.28 131.285 440.197C131.408 440.115 131.469 439.992 131.469 439.83V439.8C131.469 439.485 131.369 439.241 131.171 439.069C130.975 438.897 130.697 438.81 130.335 438.81C129.954 438.81 129.651 438.895 129.426 439.064C129.2 439.23 129.051 439.438 128.978 439.69L127.019 439.531C127.119 439.067 127.314 438.666 127.606 438.328C127.898 437.987 128.274 437.725 128.735 437.543C129.199 437.357 129.735 437.264 130.345 437.264C130.77 437.264 131.176 437.314 131.563 437.413C131.954 437.513 132.301 437.667 132.602 437.876C132.907 438.085 133.148 438.353 133.323 438.681C133.499 439.006 133.587 439.395 133.587 439.849V445H131.578V443.941H131.519C131.396 444.18 131.232 444.39 131.026 444.572C130.821 444.751 130.574 444.892 130.286 444.995C129.997 445.094 129.664 445.144 129.286 445.144ZM129.893 443.683C130.204 443.683 130.48 443.621 130.718 443.499C130.957 443.373 131.144 443.204 131.28 442.991C131.416 442.779 131.484 442.539 131.484 442.271V441.46C131.418 441.503 131.326 441.543 131.21 441.58C131.098 441.613 130.97 441.644 130.828 441.674C130.685 441.701 130.543 441.725 130.4 441.749C130.258 441.768 130.128 441.787 130.012 441.803C129.764 441.84 129.547 441.898 129.361 441.977C129.175 442.057 129.031 442.165 128.928 442.3C128.826 442.433 128.774 442.599 128.774 442.798C128.774 443.086 128.879 443.306 129.088 443.459C129.3 443.608 129.568 443.683 129.893 443.683ZM135.27 445V434.818H137.388V438.646H137.452C137.545 438.441 137.679 438.232 137.855 438.02C138.034 437.804 138.266 437.625 138.551 437.483C138.839 437.337 139.197 437.264 139.625 437.264C140.182 437.264 140.695 437.41 141.166 437.702C141.637 437.99 142.013 438.426 142.295 439.009C142.576 439.589 142.717 440.317 142.717 441.192C142.717 442.044 142.58 442.763 142.305 443.349C142.033 443.933 141.662 444.375 141.191 444.677C140.724 444.975 140.2 445.124 139.62 445.124C139.209 445.124 138.859 445.056 138.571 444.92C138.286 444.785 138.052 444.614 137.87 444.408C137.688 444.2 137.548 443.989 137.452 443.777H137.358V445H135.27ZM137.343 441.182C137.343 441.636 137.406 442.032 137.532 442.37C137.658 442.708 137.84 442.972 138.079 443.161C138.317 443.346 138.607 443.439 138.949 443.439C139.293 443.439 139.585 443.344 139.824 443.156C140.062 442.963 140.243 442.698 140.366 442.36C140.492 442.019 140.555 441.626 140.555 441.182C140.555 440.741 140.493 440.353 140.371 440.018C140.248 439.684 140.067 439.422 139.829 439.233C139.59 439.044 139.297 438.95 138.949 438.95C138.604 438.95 138.312 439.041 138.074 439.223C137.838 439.405 137.658 439.664 137.532 439.999C137.406 440.333 137.343 440.728 137.343 441.182ZM146.248 434.818V445H144.13V434.818H146.248ZM151.425 445.149C150.639 445.149 149.963 444.99 149.396 444.672C148.833 444.35 148.399 443.896 148.094 443.31C147.789 442.72 147.637 442.022 147.637 441.217C147.637 440.431 147.789 439.742 148.094 439.148C148.399 438.555 148.828 438.093 149.382 437.761C149.938 437.43 150.591 437.264 151.34 437.264C151.844 437.264 152.313 437.345 152.747 437.508C153.185 437.667 153.566 437.907 153.891 438.229C154.219 438.55 154.474 438.955 154.656 439.442C154.839 439.926 154.93 440.492 154.93 441.142V441.724H148.482V440.411H152.936C152.936 440.106 152.87 439.836 152.737 439.601C152.605 439.366 152.421 439.182 152.186 439.049C151.954 438.913 151.683 438.845 151.375 438.845C151.054 438.845 150.769 438.92 150.52 439.069C150.275 439.215 150.083 439.412 149.943 439.661C149.804 439.906 149.733 440.179 149.73 440.481V441.729C149.73 442.107 149.799 442.433 149.938 442.708C150.081 442.983 150.281 443.195 150.54 443.344C150.798 443.494 151.105 443.568 151.46 443.568C151.695 443.568 151.91 443.535 152.106 443.469C152.302 443.402 152.469 443.303 152.608 443.17C152.747 443.038 152.853 442.875 152.926 442.683L154.885 442.812C154.786 443.283 154.582 443.694 154.274 444.045C153.969 444.393 153.574 444.665 153.09 444.861C152.61 445.053 152.055 445.149 151.425 445.149ZM163.002 445.149C162.23 445.149 161.562 444.985 160.999 444.657C160.439 444.326 160.006 443.865 159.701 443.275C159.396 442.682 159.244 441.994 159.244 441.212C159.244 440.423 159.396 439.733 159.701 439.143C160.006 438.55 160.439 438.089 160.999 437.761C161.562 437.43 162.23 437.264 163.002 437.264C163.775 437.264 164.441 437.43 165.001 437.761C165.565 438.089 165.999 438.55 166.304 439.143C166.609 439.733 166.761 440.423 166.761 441.212C166.761 441.994 166.609 442.682 166.304 443.275C165.999 443.865 165.565 444.326 165.001 444.657C164.441 444.985 163.775 445.149 163.002 445.149ZM163.012 443.509C163.364 443.509 163.657 443.409 163.892 443.21C164.128 443.008 164.305 442.733 164.424 442.385C164.547 442.037 164.608 441.641 164.608 441.197C164.608 440.753 164.547 440.357 164.424 440.009C164.305 439.661 164.128 439.385 163.892 439.183C163.657 438.981 163.364 438.88 163.012 438.88C162.658 438.88 162.359 438.981 162.118 439.183C161.879 439.385 161.698 439.661 161.576 440.009C161.456 440.357 161.397 440.753 161.397 441.197C161.397 441.641 161.456 442.037 161.576 442.385C161.698 442.733 161.879 443.008 162.118 443.21C162.359 443.409 162.658 443.509 163.012 443.509ZM170.256 440.585V445H168.138V437.364H170.157V438.711H170.246C170.415 438.267 170.699 437.915 171.096 437.657C171.494 437.395 171.976 437.264 172.543 437.264C173.073 437.264 173.536 437.38 173.93 437.612C174.324 437.844 174.631 438.176 174.85 438.607C175.069 439.034 175.178 439.545 175.178 440.138V445H173.06V440.516C173.063 440.048 172.944 439.684 172.702 439.422C172.46 439.157 172.127 439.024 171.703 439.024C171.418 439.024 171.166 439.085 170.947 439.208C170.732 439.331 170.563 439.51 170.44 439.745C170.321 439.977 170.259 440.257 170.256 440.585Z" fill="white"/>
<path d="M80.6877 13.7968C84.0446 13.7968 85.7807 14.1432 85.7807 19.4586C85.7807 24.7739 89.0803 33.73 100.888 33.73H171.763C183.57 33.73 186.87 24.7739 186.87 19.4586C186.87 14.1432 188.606 13.7968 191.963 13.7968H80.6877Z" fill="black"/>
<path d="M101.374 25.0727C103.755 25.0727 105.686 23.1456 105.686 20.7685C105.686 18.3913 103.755 16.4642 101.374 16.4642C98.9922 16.4642 97.0617 18.3913 97.0617 20.7685C97.0617 23.1456 98.9922 25.0727 101.374 25.0727Z" fill="#161616"/>
<path d="M101.374 23.4234C102.843 23.4234 104.033 22.2347 104.033 20.7685C104.033 19.3022 102.843 18.1135 101.374 18.1135C99.9047 18.1135 98.714 19.3022 98.714 20.7685C98.714 22.2347 99.9047 23.4234 101.374 23.4234Z" fill="#0A0D13"/>
<path d="M101.374 22.7913C102.493 22.7913 103.4 21.8856 103.4 20.7684C103.4 19.6513 102.493 18.7456 101.374 18.7456C100.254 18.7456 99.3472 19.6513 99.3472 20.7684C99.3472 21.8856 100.254 22.7913 101.374 22.7913Z" fill="#091427"/>
<g filter="url(#filter2_f_4_191)">
<path fill-rule="evenodd" clip-rule="evenodd" d="M99.9786 19.4151C99.7383 19.4404 99.3968 19.8065 99.3715 20.5261C99.3463 21.2457 99.6624 21.6371 99.8395 21.6371C100.017 21.6371 100.75 20.5892 99.9786 19.4151H99.9786Z" fill="#235A91" fill-opacity="0.556075"/>
</g>
<g filter="url(#filter3_f_4_191)">
<path fill-rule="evenodd" clip-rule="evenodd" d="M101.704 19.1631C101.325 19.2795 101.252 19.8908 101.267 20.24C101.282 20.5893 101.777 21.5061 102.375 21.3024C102.973 21.0986 103.075 20.3419 102.827 19.8325C102.579 19.3232 102.127 18.9594 101.704 19.1631Z" fill="#235A91" fill-opacity="0.556075"/>
</g>
<path d="M95.8125 462.486V485.513C95.8127 485.563 95.8276 485.612 95.8553 485.653C95.8831 485.695 95.9225 485.727 95.9687 485.747C96.0148 485.766 96.0655 485.771 96.1146 485.761C96.1636 485.752 96.2088 485.728 96.2443 485.693L108.234 474L96.2443 462.306C96.2088 462.271 96.1636 462.247 96.1146 462.237C96.0655 462.228 96.0148 462.233 95.9687 462.252C95.9225 462.272 95.8831 462.304 95.8553 462.345C95.8276 462.387 95.8127 462.436 95.8125 462.486ZM113.262 469.195L98.2277 460.913L98.2184 460.907C97.9594 460.767 97.7133 461.117 97.9254 461.321L109.71 472.59L113.262 469.195ZM97.9266 486.679C97.7133 486.883 97.9594 487.233 98.2195 487.093L98.2289 487.088L113.262 478.805L109.71 475.409L97.9266 486.679ZM119.331 472.535L115.133 470.223L111.185 474L115.133 477.775L119.331 475.465C120.473 474.834 120.473 473.166 119.331 472.535Z" fill="black"/>
<path d="M162 460.875C154.75 460.875 148.875 466.75 148.875 474C148.875 481.25 154.75 487.125 162 487.125C169.25 487.125 175.125 481.25 175.125 474C175.125 466.75 169.25 460.875 162 460.875ZM157.02 479.736C156.939 479.873 156.824 479.987 156.685 480.066C156.547 480.144 156.39 480.185 156.231 480.184C156.069 480.185 155.909 480.142 155.77 480.057C155.667 479.998 155.576 479.918 155.504 479.823C155.432 479.728 155.379 479.62 155.348 479.504C155.318 479.389 155.31 479.268 155.326 479.15C155.343 479.032 155.382 478.918 155.442 478.815L156.338 477.325C156.383 477.248 156.448 477.185 156.525 477.14C156.603 477.096 156.691 477.073 156.78 477.073H156.912C157.562 477.073 158.017 477.464 158.149 477.843L157.02 479.736ZM164.604 476.806L158.738 476.812H154.838C154.715 476.813 154.594 476.789 154.481 476.741C154.368 476.693 154.266 476.623 154.181 476.534C154.096 476.446 154.03 476.341 153.987 476.226C153.943 476.111 153.924 475.989 153.929 475.866C153.948 475.374 154.378 475.001 154.867 475.001H157.693L161.044 469.297L159.959 467.449C159.715 467.027 159.823 466.472 160.242 466.207C160.345 466.14 160.461 466.095 160.582 466.074C160.704 466.053 160.828 466.057 160.948 466.085C161.067 466.114 161.18 466.166 161.279 466.239C161.378 466.312 161.461 466.404 161.524 466.51L162.104 467.501H162.11L162.691 466.51C162.753 466.405 162.836 466.313 162.935 466.24C163.034 466.168 163.146 466.116 163.265 466.087C163.385 466.059 163.508 466.055 163.629 466.076C163.75 466.096 163.866 466.141 163.969 466.207C164.385 466.472 164.493 467.027 164.246 467.45L163.161 469.299L162.107 471.097L159.816 475.003V475.01H163.192C163.615 475.01 164.145 475.237 164.36 475.603L164.378 475.641C164.568 475.962 164.675 476.183 164.675 476.505C164.672 476.609 164.648 476.712 164.606 476.808L164.604 476.806ZM169.16 476.812H167.572V476.819L168.733 478.794C168.858 479.002 168.896 479.251 168.839 479.487C168.783 479.723 168.636 479.927 168.43 480.056C168.287 480.143 168.124 480.189 167.957 480.189C167.798 480.189 167.642 480.147 167.504 480.069C167.365 479.991 167.25 479.878 167.168 479.742L165.452 476.821L164.385 475.004L163.01 472.652C162.81 472.317 162.702 471.935 162.695 471.544C162.689 471.154 162.784 470.768 162.971 470.426C163.243 469.946 163.451 469.82 163.451 469.82L166.512 474.996H169.143C169.635 474.996 170.058 475.375 170.081 475.86C170.085 475.984 170.065 476.107 170.021 476.222C169.977 476.338 169.91 476.443 169.824 476.532C169.738 476.621 169.636 476.692 169.522 476.74C169.408 476.788 169.285 476.813 169.162 476.812H169.16Z" fill="black"/>
<path d="M186.322 231.3C155.518 228.711 158.896 215 151.5 215H115.962H109.193C103.269 215 103.269 222.071 109.193 222.071H115.962C122.308 222.071 121.975 228.357 115.962 228.357H102.423C97.3462 228.357 97.3459 235.429 102.423 235.429H115.961C120.192 235.429 120.016 240.929 115.962 240.929C110.359 240.929 110.462 247.607 115.962 247.607H151.5C151.5 235.821 172.231 235.821 172.231 247.607H189.154V234.331C189.154 232.742 187.906 231.433 186.322 231.3Z" fill="black"/>
<path d="M92.6157 215H95.6544C102.535 215 102.105 222.071 95.6544 222.071H92.6157C86.1655 222.071 85.7355 215 92.6157 215Z" fill="black"/>
<path d="M88.3849 228.357H89.6548C94.3845 228.357 94.3845 235.429 89.6548 235.429H88.3849C82.5384 235.429 82.5383 228.357 88.3849 228.357Z" fill="black"/>
<path d="M90.9233 240.929H103.194C110.075 240.929 109.645 248 103.194 248H90.9233C84.4731 248 84.0431 240.929 90.9233 240.929Z" fill="black"/>
<defs>
<filter id="filter0_f_4_191" x="1.48296" y="0.90807" width="269.102" height="549.184" filterUnits="userSpaceOnUse" color-interpolation-filters="sRGB">
<feFlood flood-opacity="0" result="BackgroundImageFix"/>
<feBlend mode="normal" in="SourceGraphic" in2="BackgroundImageFix" result="shape"/>
<feGaussianBlur stdDeviation="0.968526" result="effect1_foregroundBlur_4_191"/>
</filter>
<filter id="filter1_f_4_191" x="112.334" y="3.48542" width="48.8401" height="8.02629" filterUnits="userSpaceOnUse" color-interpolation-filters="sRGB">
<feFlood flood-opacity="0" result="BackgroundImageFix"/>
<feBlend mode="normal" in="SourceGraphic" in2="BackgroundImageFix" result="shape"/>
<feGaussianBlur stdDeviation="1.7553" result="effect1_foregroundBlur_4_191"/>
</filter>
<filter id="filter2_f_4_191" x="99.1673" y="19.2123" width="1.36038" height="2.6277" filterUnits="userSpaceOnUse" color-interpolation-filters="sRGB">
<feFlood flood-opacity="0" result="BackgroundImageFix"/>
<feBlend mode="normal" in="SourceGraphic" in2="BackgroundImageFix" result="shape"/>
<feGaussianBlur stdDeviation="0.101426" result="effect1_foregroundBlur_4_191"/>
</filter>
<filter id="filter3_f_4_191" x="101.062" y="18.9027" width="2.09317" height="2.63176" filterUnits="userSpaceOnUse" color-interpolation-filters="sRGB">
<feFlood flood-opacity="0" result="BackgroundImageFix"/>
<feBlend mode="normal" in="SourceGraphic" in2="BackgroundImageFix" result="shape"/>
<feGaussianBlur stdDeviation="0.101426" result="effect1_foregroundBlur_4_191"/>
</filter>
<linearGradient id="paint0_linear_4_191" x1="272" y1="165.259" x2="272" y2="228.617" gradientUnits="userSpaceOnUse">
<stop stop-color="#81AACE"/>
<stop offset="0.1" stop-color="#B9D2E8"/>
<stop offset="0.9" stop-color="#B9D2E8"/>
<stop offset="1" stop-color="#81AACE"/>
</linearGradient>
<linearGradient id="paint1_linear_4_191" x1="7.68012" y1="152.1" x2="7.68012" y2="191.163" gradientUnits="userSpaceOnUse">
<stop stop-color="#81AACE"/>
<stop offset="0.1" stop-color="#B9D2E8"/>
<stop offset="0.9" stop-color="#B9D2E8"/>
<stop offset="1" stop-color="#81AACE"/>
</linearGradient>
<linearGradient id="paint2_linear_4_191" x1="7.61224" y1="204.82" x2="7.61224" y2="243.883" gradientUnits="userSpaceOnUse">
<stop stop-color="#81AACE"/>
<stop offset="0.1" stop-color="#B9D2E8"/>
<stop offset="0.9" stop-color="#B9D2E8"/>
<stop offset="1" stop-color="#81AACE"/>
</linearGradient>
<linearGradient id="paint3_linear_4_191" x1="7.61225" y1="112.076" x2="7.61225" y2="131.727" gradientUnits="userSpaceOnUse">
<stop stop-color="#81AACE"/>
<stop offset="0.1" stop-color="#B9D2E8"/>
<stop offset="0.9" stop-color="#B9D2E8"/>
<stop offset="1" stop-color="#81AACE"/>
</linearGradient>
</defs>
</svg>
